<svg version="1.1" xmlns="http://www.w3.org/2000/svg" viewBox="0 0 1344.56640625 1917.8526204427078" width="2689.1328125" height="3835.7052408854156">
  <!-- svg-source:excalidraw -->
  
  <defs>
    <style class="style-fonts">
      @font-face {
        font-family: "Virgil";
        src: url("https://excalidraw.com/Virgil.woff2");
      }
      @font-face {
        font-family: "Cascadia";
        src: url("https://excalidraw.com/Cascadia.woff2");
      }
    </style>
  </defs>
  <rect x="0" y="0" width="1344.56640625" height="1917.8526204427078" fill="#f1f3f5"></rect><g stroke-linecap="round" transform="translate(107.50781249999983 492.5087890624997) rotate(0 88 46.5)"><path d="M23.25 0 M23.25 0 C59.79 1.93, 96.59 0.76, 152.75 0 M23.25 0 C70.35 -1.18, 118.81 -2.2, 152.75 0 M152.75 0 C167.11 -1.22, 174.84 8.45, 176 23.25 M152.75 0 C169.75 -0.26, 174.6 7.81, 176 23.25 M176 23.25 C174.97 36.04, 175.35 46.02, 176 69.75 M176 23.25 C175.82 39.49, 175.66 56.81, 176 69.75 M176 69.75 C175.78 83.6, 170.19 93.07, 152.75 93 M176 69.75 C178.05 86.23, 167.18 90.78, 152.75 93 M152.75 93 C109.72 91.35, 66.39 93.24, 23.25 93 M152.75 93 C115.46 91.58, 78.64 91.6, 23.25 93 M23.25 93 C7.43 91.41, 1.42 84.89, 0 69.75 M23.25 93 C8.84 94.29, -0.1 86.31, 0 69.75 M0 69.75 C-0.56 59, 1.09 47.23, 0 23.25 M0 69.75 C-1.25 56.17, 0.18 43.59, 0 23.25 M0 23.25 C1.58 8.31, 6.53 -1.39, 23.25 0 M0 23.25 C-0.38 6.02, 5.9 -1.91, 23.25 0" stroke="#000000" stroke-width="1" fill="none"></path></g><g transform="translate(127.50781249999983 526.5087890624998) rotate(0 68 12.5)"><text x="68" y="18" font-family="Virgil, Segoe UI Emoji" font-size="20px" fill="#000000" text-anchor="middle" style="white-space: pre;" direction="ltr">Display Info 1</text></g><g stroke-linecap="round" transform="translate(399.05664062499983 522.4228515624998) rotate(0 88.5 92.5)"><path d="M32 0 M32 0 C64.35 1.08, 95.05 -1.29, 145 0 M32 0 C62.25 -0.76, 91.53 -1.5, 145 0 M145 0 C167.45 -1.75, 175.45 11.19, 177 32 M145 0 C166.06 -0.85, 176.91 9.12, 177 32 M177 32 C175.98 78.41, 178.55 123.87, 177 153 M177 32 C177.33 65.09, 176.3 97.82, 177 153 M177 153 C175.91 176.23, 164.42 186.26, 145 185 M177 153 C177.88 176.24, 165.91 187.23, 145 185 M145 185 C102.36 187.08, 59.98 186.29, 32 185 M145 185 C119.62 184.33, 93.13 184.98, 32 185 M32 185 C9.37 183.01, 0.63 175.16, 0 153 M32 185 C8.78 184.2, 2.03 176.1, 0 153 M0 153 C-1.55 112.94, -2.09 71.21, 0 32 M0 153 C0.6 106.6, 1.45 62.57, 0 32 M0 32 C1.8 8.78, 12.17 1.59, 32 0 M0 32 C-0.92 8.69, 12.18 0.16, 32 0" stroke="#000000" stroke-width="1" fill="none"></path></g><g transform="translate(407.05664062499983 527.4228515624998) rotate(0 80.5 87.5)"><text x="80.5" y="18" font-family="Virgil, Segoe UI Emoji" font-size="20px" fill="#000000" text-anchor="middle" style="white-space: pre;" direction="ltr">Change Modes</text><text x="80.5" y="43" font-family="Virgil, Segoe UI Emoji" font-size="20px" fill="#000000" text-anchor="middle" style="white-space: pre;" direction="ltr">- Ride</text><text x="80.5" y="68" font-family="Virgil, Segoe UI Emoji" font-size="20px" fill="#000000" text-anchor="middle" style="white-space: pre;" direction="ltr">- Start Circuit </text><text x="80.5" y="93" font-family="Virgil, Segoe UI Emoji" font-size="20px" fill="#000000" text-anchor="middle" style="white-space: pre;" direction="ltr">Race</text><text x="80.5" y="118" font-family="Virgil, Segoe UI Emoji" font-size="20px" fill="#000000" text-anchor="middle" style="white-space: pre;" direction="ltr">- Start Enduro </text><text x="80.5" y="143" font-family="Virgil, Segoe UI Emoji" font-size="20px" fill="#000000" text-anchor="middle" style="white-space: pre;" direction="ltr">Race</text><text x="80.5" y="168" font-family="Virgil, Segoe UI Emoji" font-size="20px" fill="#000000" text-anchor="middle" style="white-space: pre;" direction="ltr">- Configuration </text></g><g stroke-linecap="round" transform="translate(933.9941406249998 667.1142578124998) rotate(0 92.5 40)"><path d="M20 0 M20 0 C70.67 -1.72, 120.4 0.99, 165 0 M20 0 C50.69 -0.75, 81.58 -1.05, 165 0 M165 0 C180.08 0.3, 183.35 5.46, 185 20 M165 0 C177.78 1.57, 182.8 6.1, 185 20 M185 20 C184.68 30.85, 183.51 44.19, 185 60 M185 20 C185 36.62, 184.43 52.55, 185 60 M185 60 C186.43 71.51, 179.67 79.35, 165 80 M185 60 C186.52 72.13, 178.95 78.4, 165 80 M165 80 C108.44 81.46, 54.17 79.67, 20 80 M165 80 C135.09 80.25, 107.71 81.37, 20 80 M20 80 C7.57 80.74, 0.36 72.23, 0 60 M20 80 C8.61 78.12, 1.95 75.09, 0 60 M0 60 C-1.42 51.76, 1.59 42.16, 0 20 M0 60 C-0.7 50.91, 0.36 43.62, 0 20 M0 20 C0.6 6.82, 5.12 -0.09, 20 0 M0 20 C-0.75 8.16, 8.01 -2.22, 20 0" stroke="#000000" stroke-width="1" fill="none"></path></g><g transform="translate(962.9941406249998 682.1142578124998) rotate(0 63.5 25)"><text x="63.5" y="18" font-family="Virgil, Segoe UI Emoji" font-size="20px" fill="#000000" text-anchor="middle" style="white-space: pre;" direction="ltr">Load Route </text><text x="63.5" y="43" font-family="Virgil, Segoe UI Emoji" font-size="20px" fill="#000000" text-anchor="middle" style="white-space: pre;" direction="ltr">Sheet</text></g><g stroke-linecap="round" transform="translate(111.37304687499983 633.1416015624998) rotate(0 88.5 45)"><path d="M22.5 0 M22.5 0 C51.16 0.08, 79.95 1.91, 154.5 0 M22.5 0 C63.87 1.48, 104.76 0.55, 154.5 0 M154.5 0 C169.82 0.61, 177.28 7.06, 177 22.5 M154.5 0 C167.45 -1.85, 175.75 9.68, 177 22.5 M177 22.5 C178.94 31.33, 179.22 42.34, 177 67.5 M177 22.5 C177.96 31.38, 177.57 40.6, 177 67.5 M177 67.5 C178.66 82.2, 170.84 89, 154.5 90 M177 67.5 C177.56 82.84, 168 87.71, 154.5 90 M154.5 90 C110.03 90.69, 68.48 89.82, 22.5 90 M154.5 90 C110.85 88.45, 66.36 90.03, 22.5 90 M22.5 90 C6.41 88.4, -0.12 80.76, 0 67.5 M22.5 90 C9.32 91.47, 2.07 80.33, 0 67.5 M0 67.5 C-2.08 51.93, -0.21 34.33, 0 22.5 M0 67.5 C0.02 54.31, 0.93 38.85, 0 22.5 M0 22.5 C1.61 6.99, 8.03 1.97, 22.5 0 M0 22.5 C-1.89 8.28, 5.68 1.33, 22.5 0" stroke="#000000" stroke-width="1" fill="none"></path></g><g transform="translate(122.37304687499983 665.6416015624998) rotate(0 77.5 12.5)"><text x="77.5" y="18" font-family="Virgil, Segoe UI Emoji" font-size="20px" fill="#000000" text-anchor="middle" style="white-space: pre;" direction="ltr"> Display Info 2</text></g><g stroke-linecap="round"><g transform="translate(287.52734374999994 543.2574761559706) rotate(0 54.41156345501071 27.924736379712)"><path d="M1.06 0.01 C19.15 9.36, 90.54 45.98, 108.67 55.35 M0.15 -1.04 C18.03 8.59, 89.24 47.65, 107.46 56.89" stroke="#000000" stroke-width="1" fill="none"></path></g><g transform="translate(287.52734374999994 543.2574761559706) rotate(0 54.41156345501071 27.924736379712)"><path d="M77.76 51.92 C86.96 54.92, 97.68 53.5, 107.99 55.1 M76.88 52.33 C84.08 54.43, 90.78 54.41, 106.61 57.75" stroke="#000000" stroke-width="1" fill="none"></path></g><g transform="translate(287.52734374999994 543.2574761559706) rotate(0 54.41156345501071 27.924736379712)"><path d="M87.38 33.79 C93.46 42.52, 101.19 46.74, 107.99 55.1 M86.49 34.21 C91.56 40.06, 96.25 43.81, 106.61 57.75" stroke="#000000" stroke-width="1" fill="none"></path></g></g><mask></mask><g stroke-linecap="round"><g transform="translate(197.63671874999983 586.5244140624998) rotate(0 -0.2850040691206175 24.018886596532553)"><path d="M0.66 1.14 C0.4 8.68, -0.22 38.27, -0.47 45.99 M-0.45 0.69 C-0.93 8.35, -1.04 39.85, -1.23 47.35" stroke="#000000" stroke-width="1" fill="none"></path></g><g transform="translate(197.63671874999983 586.5244140624998) rotate(0 -0.2850040691206175 24.018886596532553)"><path d="M-6.96 26.08 C-6.32 33.97, -0.94 44.42, -1.4 47.01 M-9.49 25.8 C-5.78 33.77, -4.22 42.03, -0.99 47.14" stroke="#000000" stroke-width="1" fill="none"></path></g><g transform="translate(197.63671874999983 586.5244140624998) rotate(0 -0.2850040691206175 24.018886596532553)"><path d="M8.89 26.3 C3.34 34.18, 2.53 44.55, -1.4 47.01 M6.36 26.02 C4.36 34, 0.21 42.18, -0.99 47.14" stroke="#000000" stroke-width="1" fill="none"></path></g></g><mask></mask><g stroke-linecap="round" transform="translate(108.74218749999983 767.0556640624998) rotate(0 88.5 45)"><path d="M22.5 0 M22.5 0 C66.55 -0.44, 111.48 -1.87, 154.5 0 M22.5 0 C64.51 -0.3, 106.78 -0.88, 154.5 0 M154.5 0 C168.37 1.81, 175.79 6.37, 177 22.5 M154.5 0 C168.94 1.12, 176.5 7.33, 177 22.5 M177 22.5 C178.27 38.74, 177.76 51.74, 177 67.5 M177 22.5 C176.62 34.63, 177.27 49.13, 177 67.5 M177 67.5 C175.17 82.78, 167.9 88, 154.5 90 M177 67.5 C177.14 84.51, 170.62 88.48, 154.5 90 M154.5 90 C107.44 88.27, 55.24 91.87, 22.5 90 M154.5 90 C103.28 90.38, 50.25 91.84, 22.5 90 M22.5 90 C9.34 89.61, 1.44 82.73, 0 67.5 M22.5 90 C6.07 88.26, 1.39 82.93, 0 67.5 M0 67.5 C-1.68 55.37, 1.29 44.66, 0 22.5 M0 67.5 C-0.5 58.91, -0.46 48.37, 0 22.5 M0 22.5 C-0.4 6.24, 8.49 -0.79, 22.5 0 M0 22.5 C0.86 8.31, 5.97 -0.68, 22.5 0" stroke="#000000" stroke-width="1" fill="none"></path></g><g transform="translate(120.74218749999983 799.5556640624998) rotate(0 76.5 12.5)"><text x="76.5" y="18" font-family="Virgil, Segoe UI Emoji" font-size="20px" fill="#000000" text-anchor="middle" style="white-space: pre;" direction="ltr"> Display Info X</text></g><g stroke-linecap="round"><g transform="translate(201.05078124999983 731.0517578124998) rotate(0 -1.2813485810207226 18.71192695246077)"><path d="M1.07 -0.51 C0.65 5.73, -1.93 31.52, -2.7 37.71 M0.18 -1.82 C-0.39 4.59, -3.42 32.71, -3.63 39.25" stroke="#000000" stroke-width="1" fill="none"></path></g><g transform="translate(201.05078124999983 731.0517578124998) rotate(0 -1.2813485810207226 18.71192695246077)"><path d="M-9.52 21.08 C-7.22 24.91, -7.4 31.52, -1.85 39.16 M-8.76 21.26 C-6.76 25.67, -6.13 29.85, -4.02 39.82" stroke="#000000" stroke-width="1" fill="none"></path></g><g transform="translate(201.05078124999983 731.0517578124998) rotate(0 -1.2813485810207226 18.71192695246077)"><path d="M3.37 22.07 C1.96 25.73, -1.94 32.06, -1.85 39.16 M4.13 22.25 C2.73 26.32, -0.04 30.24, -4.02 39.82" stroke="#000000" stroke-width="1" fill="none"></path></g></g><mask></mask><g stroke-linecap="round"><g transform="translate(97.83984374999989 804.3408203124998) rotate(0 -32.19060579959168 -136.45201053097844)"><path d="M1.07 0.6 C-9.95 -20.31, -65.36 -80.6, -65.28 -126.28 C-65.19 -171.96, -9.39 -249.08, 1.57 -273.5 M0.17 -0.14 C-11.03 -21.34, -66.09 -82.74, -65.95 -128.18 C-65.81 -173.63, -10.05 -248.85, 1 -272.8" stroke="#000000" stroke-width="1" fill="none"></path></g><g transform="translate(97.83984374999989 804.3408203124998) rotate(0 -32.19060579959168 -136.45201053097844)"><path d="M-3.3 -242.4 C-1.44 -253.54, -2.16 -266.21, 0.24 -272.24 M-5.26 -243.62 C-1.89 -250.34, -1.53 -257.54, 1.47 -273.42" stroke="#000000" stroke-width="1" fill="none"></path></g><g transform="translate(97.83984374999989 804.3408203124998) rotate(0 -32.19060579959168 -136.45201053097844)"><path d="M-21.05 -252.72 C-12.73 -260.23, -6.94 -269.11, 0.24 -272.24 M-23.01 -253.94 C-15.42 -257.98, -10.76 -262.68, 1.47 -273.42" stroke="#000000" stroke-width="1" fill="none"></path></g></g><mask></mask><g stroke-linecap="round" transform="translate(657.7578124999998 694.0556640624998) rotate(0 92.5 55)"><path d="M27.5 0 M27.5 0 C70.35 -1.78, 116 0.87, 157.5 0 M27.5 0 C67.46 -0.18, 106.52 0.17, 157.5 0 M157.5 0 C176.13 1.85, 186.67 9.23, 185 27.5 M157.5 0 C177.38 -0.58, 186.16 8.11, 185 27.5 M185 27.5 C186.49 42.73, 185.47 60.01, 185 82.5 M185 27.5 C185.69 41.12, 184.59 54.16, 185 82.5 M185 82.5 C186.88 101.31, 174.79 109.69, 157.5 110 M185 82.5 C184.95 102.88, 177.01 111.95, 157.5 110 M157.5 110 C131.42 110.35, 103.06 111.16, 27.5 110 M157.5 110 C122.46 110.04, 89.45 110.29, 27.5 110 M27.5 110 C10.04 110.98, 0.1 99.92, 0 82.5 M27.5 110 C9.79 108.74, 0.16 98.54, 0 82.5 M0 82.5 C-1.48 67.37, -0.31 54.24, 0 27.5 M0 82.5 C-1.35 69.3, 0.45 53.75, 0 27.5 M0 27.5 C1.62 10.74, 8.35 1.68, 27.5 0 M0 27.5 C0 9.6, 8.25 0.56, 27.5 0" stroke="#000000" stroke-width="1" fill="none"></path></g><g transform="translate(668.2578124999998 699.0556640624998) rotate(0 82 37.5)"><text x="82" y="18" font-family="Virgil, Segoe UI Emoji" font-size="20px" fill="#000000" text-anchor="middle" style="white-space: pre;" direction="ltr">- Load Route </text><text x="82" y="43" font-family="Virgil, Segoe UI Emoji" font-size="20px" fill="#000000" text-anchor="middle" style="white-space: pre;" direction="ltr">Sheet</text><text x="82" y="68" font-family="Virgil, Segoe UI Emoji" font-size="20px" fill="#000000" text-anchor="middle" style="white-space: pre;" direction="ltr">- Set Wheel Size</text></g><g stroke-linecap="round"><g transform="translate(817.7421874999998 711.4306640624998) rotate(0 54.31669654324651 -4.062588124438207)"><path d="M-1.11 0.53 C17.37 -0.49, 91.28 -5.46, 109.75 -6.65 M0.5 -0.24 C19.01 -1.59, 91.11 -7.83, 109.25 -8.65" stroke="#000000" stroke-width="1" fill="none"></path></g><g transform="translate(817.7421874999998 711.4306640624998) rotate(0 54.31669654324651 -4.062588124438207)"><path d="M82.7 4.94 C87.85 2.62, 93.48 -3.07, 109.98 -10.05 M81.92 4.16 C90.16 -0.93, 98.65 -3.36, 108.79 -9.1" stroke="#000000" stroke-width="1" fill="none"></path></g><g transform="translate(817.7421874999998 711.4306640624998) rotate(0 54.31669654324651 -4.062588124438207)"><path d="M81.3 -15.53 C86.63 -13.68, 92.55 -15.2, 109.98 -10.05 M80.51 -16.31 C89.15 -15.2, 98.07 -11.44, 108.79 -9.1" stroke="#000000" stroke-width="1" fill="none"></path></g></g><mask></mask><g stroke-linecap="round"><g transform="translate(489.47265624999983 700.7080078124998) rotate(0 80.20549828260675 23.620880958666078)"><path d="M-0.45 -0.77 C25.83 6.92, 132.07 38.82, 158.61 47 M1.51 1.44 C28.08 9.18, 134.84 39.95, 160.86 48.01" stroke="#000000" stroke-width="1" fill="none"></path></g><g transform="translate(489.47265624999983 700.7080078124998) rotate(0 80.20549828260675 23.620880958666078)"><path d="M129.63 48.36 C140.57 48.1, 154.08 47.91, 161.9 49.42 M131.32 49.32 C138.65 49.28, 146.1 49.51, 160.1 47.99" stroke="#000000" stroke-width="1" fill="none"></path></g><g transform="translate(489.47265624999983 700.7080078124998) rotate(0 80.20549828260675 23.620880958666078)"><path d="M135.48 28.69 C144.35 35.84, 155.64 43.1, 161.9 49.42 M137.17 29.65 C142.99 34.29, 149.05 39.22, 160.1 47.99" stroke="#000000" stroke-width="1" fill="none"></path></g></g><mask></mask><g transform="translate(206.42578125000006 916.7211100260413) rotate(0 28 35.5)"><text x="0" y="25.5" font-family="Virgil, Segoe UI Emoji" font-size="28px" fill="#000000" text-anchor="start" style="white-space: pre;" direction="ltr">Ride</text><text x="0" y="61" font-family="Virgil, Segoe UI Emoji" font-size="28px" fill="#000000" text-anchor="start" style="white-space: pre;" direction="ltr"></text></g><g stroke-linecap="round" transform="translate(78.7955729166668 1723.1872558593745) rotate(0 148.51888020833326 81.728515625)"><path d="M32 0 M32 0 C98.11 1.8, 165.29 2.77, 265.04 0 M32 0 C121.8 -0.45, 210.52 0.48, 265.04 0 M265.04 0 C285.92 1.27, 296.49 10.84, 297.04 32 M265.04 0 C287.01 0, 295.92 12.17, 297.04 32 M297.04 32 C295.95 69.11, 297.37 110.28, 297.04 131.46 M297.04 32 C296.54 63.04, 297.01 95.01, 297.04 131.46 M297.04 131.46 C298.21 154.55, 287.41 163.14, 265.04 163.46 M297.04 131.46 C295.96 152.29, 285.77 161.54, 265.04 163.46 M265.04 163.46 C203.54 161.9, 141.86 161.83, 32 163.46 M265.04 163.46 C190.19 161.48, 114.06 161.58, 32 163.46 M32 163.46 C8.73 164.75, -1.71 154.54, 0 131.46 M32 163.46 C9.7 161.73, 0.36 152.15, 0 131.46 M0 131.46 C1.72 100.18, 0.77 69.67, 0 32 M0 131.46 C-0.98 104.41, 0.48 78.9, 0 32 M0 32 C-0.96 9.43, 9.04 -0.13, 32 0 M0 32 C-0.62 12.69, 11.56 2.25, 32 0" stroke="#000000" stroke-width="1" fill="none"></path></g><g transform="translate(136.94661458333354 1757.8526204427078) rotate(0 100.5 75)"><text x="0" y="18" font-family="Virgil, Segoe UI Emoji" font-size="20px" fill="#000000" text-anchor="start" style="white-space: pre;" direction="ltr">Info 1</text><text x="0" y="43" font-family="Virgil, Segoe UI Emoji" font-size="20px" fill="#000000" text-anchor="start" style="white-space: pre;" direction="ltr">- Current Speed</text><text x="0" y="68" font-family="Virgil, Segoe UI Emoji" font-size="20px" fill="#000000" text-anchor="start" style="white-space: pre;" direction="ltr">- Average Speed</text><text x="0" y="93" font-family="Virgil, Segoe UI Emoji" font-size="20px" fill="#000000" text-anchor="start" style="white-space: pre;" direction="ltr">- Distance Traveled</text><text x="0" y="118" font-family="Virgil, Segoe UI Emoji" font-size="20px" fill="#000000" text-anchor="start" style="white-space: pre;" direction="ltr">- Elapsed Time</text><text x="0" y="143" font-family="Virgil, Segoe UI Emoji" font-size="20px" fill="#000000" text-anchor="start" style="white-space: pre;" direction="ltr"></text></g><g stroke-linecap="round" transform="translate(79.18619791666669 155.8565266927081) rotate(0 100.11067708333331 64.14062499999994)"><path d="M120.55 1.64 C133.55 2.21, 147.3 6.34, 158.36 11.31 C169.41 16.28, 179.84 23.76, 186.88 31.47 C193.92 39.17, 199.2 48.8, 200.6 57.55 C202 66.31, 199.78 75.79, 195.28 84 C190.78 92.21, 182.78 100.45, 173.58 106.8 C164.38 113.15, 152.37 118.44, 140.09 122.09 C127.81 125.74, 113.45 128.64, 99.9 128.68 C86.34 128.72, 71.23 125.82, 58.77 122.32 C46.32 118.83, 34.27 114.07, 25.15 107.69 C16.03 101.31, 8.03 92.56, 4.07 84.03 C0.11 75.5, -0.32 65.29, 1.39 56.51 C3.1 47.72, 7.8 38.61, 14.32 31.31 C20.84 24.01, 29.64 17.58, 40.52 12.71 C51.4 7.83, 65.2 3.85, 79.61 2.06 C94.03 0.26, 118.24 1.69, 126.99 1.95 C135.74 2.21, 132.61 2.58, 132.12 3.62 M93.59 0.48 C106.51 -1.32, 123.41 0.29, 136.32 3.52 C149.23 6.76, 161.37 13.84, 171.03 19.89 C180.68 25.95, 189.55 31.84, 194.25 39.86 C198.94 47.89, 200.21 59.21, 199.19 68.04 C198.18 76.86, 194.12 85.33, 188.16 92.81 C182.2 100.28, 173.67 107.54, 163.43 112.9 C153.19 118.26, 139.94 122.28, 126.7 124.94 C113.47 127.6, 97.24 130.01, 84.01 128.87 C70.79 127.72, 58.83 123, 47.36 118.05 C35.88 113.1, 22.92 106.22, 15.17 99.15 C7.41 92.07, 2.6 83.98, 0.86 75.6 C-0.89 67.21, 1.16 57.21, 4.67 48.83 C8.18 40.46, 13.57 32.04, 21.93 25.33 C30.29 18.62, 42.71 12.77, 54.84 8.57 C66.97 4.38, 88.24 1.37, 94.71 0.16 C101.18 -1.05, 93.61 0.15, 93.67 1.31" stroke="#000000" stroke-width="1" fill="none"></path></g><g transform="translate(101.11979166666657 201.74584960937477) rotate(0 88 12.5)"><text x="0" y="18" font-family="Virgil, Segoe UI Emoji" font-size="20px" fill="#000000" text-anchor="start" style="white-space: pre;" direction="ltr">Cycle info screens</text></g><g transform="translate(146.70572916666657 126.15991210937477) rotate(0 42.5 12.5)"><text x="0" y="18" font-family="Virgil, Segoe UI Emoji" font-size="20px" fill="#000000" text-anchor="start" style="white-space: pre;" direction="ltr">Button 1</text></g><g stroke-linecap="round" transform="translate(87.78645833333326 340.8220214843748) rotate(0 100.11067708333329 64.14062499999994)"><path d="M90.93 0.49 C103.6 -1.12, 120.05 0.23, 133.15 3.1 C146.25 5.97, 159.76 11.59, 169.51 17.71 C179.26 23.82, 186.48 31.78, 191.63 39.79 C196.79 47.81, 200.7 57.17, 200.45 65.82 C200.19 74.46, 195.95 83.76, 190.11 91.68 C184.27 99.59, 175.65 107.71, 165.43 113.32 C155.2 118.94, 141.58 123, 128.74 125.34 C115.89 127.68, 101.71 128.54, 88.38 127.39 C75.04 126.23, 60.43 122.89, 48.75 118.4 C37.08 113.92, 26.19 107.48, 18.32 100.48 C10.45 93.49, 4.06 85.01, 1.55 76.44 C-0.96 67.87, -0.03 57.44, 3.25 49.06 C6.53 40.68, 13.19 33.07, 21.25 26.18 C29.31 19.29, 39.29 11.98, 51.61 7.72 C63.93 3.46, 87.44 1.81, 95.16 0.61 C102.88 -0.58, 98.1 -0.44, 97.94 0.55 M103.22 -0.4 C115.85 -1.03, 131.78 2.68, 144.23 6.48 C156.68 10.28, 169.09 15.84, 177.93 22.41 C186.76 28.97, 193.78 37.49, 197.23 45.87 C200.67 54.25, 200.58 63.91, 198.6 72.67 C196.62 81.43, 192.55 90.85, 185.34 98.44 C178.14 106.02, 167.01 113.11, 155.37 118.17 C143.73 123.22, 129.01 127.57, 115.51 128.78 C102 130, 87.29 127.64, 74.33 125.46 C61.36 123.29, 48.38 120.95, 37.72 115.73 C27.06 110.52, 16.59 102.16, 10.35 94.19 C4.12 86.22, 1.04 76.51, 0.3 67.94 C-0.43 59.37, 1.43 51.06, 5.94 42.76 C10.46 34.46, 17.82 24.72, 27.38 18.11 C36.94 11.51, 50.3 6.2, 63.31 3.14 C76.32 0.08, 98.52 0.01, 105.45 -0.25 C112.38 -0.5, 105.02 0.57, 104.88 1.58" stroke="#000000" stroke-width="1" fill="none"></path></g><g transform="translate(109.27083333333326 386.7113444010415) rotate(0 68.5 12.5)"><text x="0" y="18" font-family="Virgil, Segoe UI Emoji" font-size="20px" fill="#000000" text-anchor="start" style="white-space: pre;" direction="ltr">Change Modes</text></g><g transform="translate(10 310.1097819010415) rotate(0 186.50000000000003 12.5)"><text x="0" y="18" font-family="Virgil, Segoe UI Emoji" font-size="20px" fill="#000000" text-anchor="start" style="white-space: pre;" direction="ltr">Button 1 + 2 or Button 1 Long Press</text></g><g stroke-linecap="round" transform="translate(394.33593750000006 145.55509440104154) rotate(0 100.11067708333331 64.14062499999994)"><path d="M70.99 2.68 C83.17 -0.4, 100.63 -0.11, 114.15 1.17 C127.67 2.44, 140.71 5.86, 152.11 10.32 C163.51 14.78, 174.94 20.83, 182.55 27.93 C190.16 35.04, 195.29 44.41, 197.79 52.96 C200.28 61.5, 200.63 70.82, 197.5 79.22 C194.37 87.62, 187.42 96.42, 179.01 103.35 C170.6 110.28, 159.05 116.73, 147.05 120.78 C135.05 124.82, 120.54 127.01, 107.02 127.62 C93.5 128.22, 78.6 127.1, 65.9 124.4 C53.2 121.71, 40.53 117.53, 30.83 111.46 C21.13 105.4, 12.85 96.11, 7.69 88.03 C2.53 79.95, -0.41 71.75, -0.13 62.99 C0.14 54.22, 3.61 43.42, 9.36 35.42 C15.11 27.43, 23.13 20.67, 34.37 15.02 C45.62 9.37, 68.62 3.78, 76.83 1.55 C85.04 -0.69, 83.1 0.46, 83.61 1.63 M90.83 0.82 C103.61 -1.04, 119.13 -0.04, 132.14 2.75 C145.14 5.54, 158.61 11.32, 168.84 17.56 C179.07 23.8, 188.35 32.09, 193.5 40.18 C198.64 48.28, 200.19 57.51, 199.71 66.12 C199.23 74.73, 196.25 84.15, 190.62 91.83 C184.99 99.52, 176.13 106.84, 165.94 112.22 C155.74 117.6, 142.6 121.72, 129.44 124.13 C116.28 126.54, 100.68 127.65, 86.98 126.71 C73.28 125.77, 58.53 122.91, 47.23 118.51 C35.93 114.1, 26.92 107.12, 19.16 100.27 C11.41 93.42, 3.3 85.76, 0.7 77.4 C-1.9 69.05, 0.08 58.95, 3.56 50.12 C7.04 41.3, 13.75 31.46, 21.57 24.47 C29.39 17.49, 39.03 12.15, 50.46 8.22 C61.89 4.28, 83.34 1.76, 90.16 0.86 C96.98 -0.03, 91.21 2.11, 91.39 2.86" stroke="#000000" stroke-width="1" fill="none"></path></g><g transform="translate(407.2916666666668 196.22306315104152) rotate(0 91.5 12.5)"><text x="0" y="18" font-family="Virgil, Segoe UI Emoji" font-size="20px" fill="#000000" text-anchor="start" style="white-space: pre;" direction="ltr">Select menu option</text></g><g transform="translate(461.85546875000006 115.85847981770817) rotate(0 42.5 12.5)"><text x="0" y="18" font-family="Virgil, Segoe UI Emoji" font-size="20px" fill="#000000" text-anchor="start" style="white-space: pre;" direction="ltr">Button 1</text></g><g stroke-linecap="round" transform="translate(393.7239583333333 329.17488606770826) rotate(0 100.11067708333331 64.14062499999994)"><path d="M97.59 -0.11 C110.38 -1.53, 125.93 0.87, 138.28 4.27 C150.64 7.66, 162.42 13.77, 171.73 20.25 C181.05 26.73, 189.49 35.23, 194.17 43.16 C198.85 51.09, 200.72 59.18, 199.82 67.83 C198.92 76.47, 195.01 87.31, 188.74 95.03 C182.47 102.74, 173.07 109.02, 162.2 114.13 C151.32 119.24, 136.8 123.4, 123.49 125.67 C110.18 127.93, 95.42 128.98, 82.34 127.74 C69.26 126.49, 56.03 123.07, 44.99 118.19 C33.95 113.31, 23.47 105.97, 16.11 98.45 C8.75 90.92, 3 81.64, 0.84 73.04 C-1.32 64.44, -0.48 55.32, 3.13 46.82 C6.74 38.33, 13.81 28.62, 22.5 22.05 C31.19 15.48, 41.19 10.87, 55.27 7.39 C69.36 3.91, 96.64 2.13, 106.99 1.16 C117.34 0.2, 117.5 0.67, 117.38 1.61 M71.11 2.43 C82.76 -0.53, 98.08 0.29, 111.7 1.27 C125.31 2.25, 140.79 3.71, 152.79 8.3 C164.78 12.9, 176.29 21.74, 183.69 28.86 C191.08 35.98, 194.6 42.85, 197.15 51.03 C199.69 59.21, 202.12 69.23, 198.98 77.96 C195.83 86.69, 186.58 96.35, 178.25 103.4 C169.92 110.45, 160.81 115.98, 149 120.27 C137.19 124.57, 121.15 128.27, 107.4 129.16 C93.65 130.06, 79.26 128.63, 66.5 125.64 C53.74 122.65, 40.78 117.32, 30.83 111.24 C20.88 105.16, 11.71 97.26, 6.81 89.16 C1.92 81.06, 1.03 71.5, 1.46 62.64 C1.88 53.79, 3.57 43.84, 9.35 36.06 C15.14 28.27, 25.79 21.45, 36.18 15.92 C46.57 10.4, 65.51 4.68, 71.7 2.92 C77.88 1.17, 72.66 4.49, 73.31 5.39" stroke="#000000" stroke-width="1" fill="none"></path></g><g transform="translate(406.67968750000006 379.84285481770814) rotate(0 91 12.5)"><text x="0" y="18" font-family="Virgil, Segoe UI Emoji" font-size="20px" fill="#000000" text-anchor="start" style="white-space: pre;" direction="ltr">Cycle menu options</text></g><g transform="translate(461.2434895833333 299.4782714843749) rotate(0 47 12.5)"><text x="0" y="18" font-family="Virgil, Segoe UI Emoji" font-size="20px" fill="#000000" text-anchor="start" style="white-space: pre;" direction="ltr">Button 2</text></g><g transform="translate(191.85546875000006 10) rotate(0 144.5 18)"><text x="0" y="25" font-family="Virgil, Segoe UI Emoji" font-size="28px" fill="#000000" text-anchor="start" style="white-space: pre;" direction="ltr">Dirty Tracker State</text></g><g stroke-linecap="round" transform="translate(137.31119791666669 1040.46435546875) rotate(0 100.11067708333331 64.14062499999994)"><path d="M125.82 1.26 C138.41 2.42, 150.89 8.02, 161.25 13.57 C171.61 19.12, 181.41 26.89, 187.96 34.57 C194.51 42.25, 199.45 50.96, 200.54 59.66 C201.63 68.35, 199.29 78.55, 194.5 86.73 C189.71 94.91, 181.25 102.48, 171.81 108.75 C162.38 115.02, 150.51 121.09, 137.9 124.35 C125.3 127.62, 109.8 128.74, 96.17 128.34 C82.54 127.93, 68.26 125.86, 56.14 121.91 C44.02 117.96, 32.17 111.28, 23.43 104.64 C14.7 98, 7.48 90.34, 3.75 82.07 C0.02 73.8, -1.02 63.59, 1.07 55.04 C3.15 46.49, 9.06 38.29, 16.25 30.77 C23.43 23.25, 32.99 14.78, 44.17 9.92 C55.34 5.06, 67.58 2.37, 83.32 1.61 C99.05 0.86, 127.73 4.15, 138.59 5.38 C149.46 6.6, 149.35 8.07, 148.5 8.97 M123.71 2.96 C136.52 3.72, 151.38 7.41, 162.02 12.48 C172.65 17.56, 181.15 25.54, 187.53 33.4 C193.91 41.27, 199.26 51.18, 200.29 59.67 C201.32 68.17, 198.32 76.28, 193.7 84.38 C189.09 92.48, 181.91 101.61, 172.59 108.28 C163.27 114.95, 150.36 120.86, 137.78 124.38 C125.2 127.91, 110.88 129.64, 97.12 129.41 C83.37 129.18, 67.43 126.8, 55.22 123.01 C43.02 119.23, 32.66 113.47, 23.91 106.71 C15.16 99.95, 6.44 90.75, 2.75 82.46 C-0.94 74.18, -0.03 65.6, 1.79 56.99 C3.61 48.39, 6.75 38.45, 13.67 30.84 C20.58 23.23, 32.08 16.2, 43.28 11.35 C54.48 6.5, 67.47 3.25, 80.86 1.72 C94.25 0.2, 116.49 1.78, 123.61 2.2 C130.73 2.61, 124.06 3.04, 123.57 4.2" stroke="#000000" stroke-width="1" fill="none"></path></g><g transform="translate(159.24479166666669 1086.3536783854167) rotate(0 88 12.5)"><text x="0" y="18" font-family="Virgil, Segoe UI Emoji" font-size="20px" fill="#000000" text-anchor="start" style="white-space: pre;" direction="ltr">Cycle info screens</text></g><g transform="translate(204.83072916666669 1010.7677408854165) rotate(0 42.5 12.5)"><text x="0" y="18" font-family="Virgil, Segoe UI Emoji" font-size="20px" fill="#000000" text-anchor="start" style="white-space: pre;" direction="ltr">Button 1</text></g><g stroke-linecap="round" transform="translate(129.81510416666663 1208.698404947917) rotate(0 100.11067708333334 64.14062499999994)"><path d="M107.37 -0.58 C120.48 -0.94, 136.4 4.39, 148.26 8.48 C160.12 12.57, 170.27 17.11, 178.53 23.99 C186.8 30.86, 194.51 41.26, 197.87 49.71 C201.23 58.16, 201.24 66.45, 198.67 74.7 C196.1 82.95, 189.95 91.88, 182.45 99.2 C174.95 106.52, 165.23 113.91, 153.66 118.63 C142.1 123.35, 126.57 126.42, 113.06 127.51 C99.55 128.61, 85.43 127.56, 72.62 125.2 C59.8 122.84, 46.61 118.71, 36.16 113.36 C25.71 108, 16.07 101.02, 9.93 93.07 C3.79 85.12, -0.34 74.63, -0.68 65.66 C-1.01 56.7, 2.64 47.35, 7.92 39.28 C13.2 31.21, 21.39 23.04, 31 17.26 C40.61 11.47, 52.11 7.34, 65.57 4.56 C79.04 1.79, 103.25 0.84, 111.78 0.6 C120.31 0.36, 116.83 2.01, 116.75 3.11 M78.33 0.62 C90.19 -2.26, 106.54 -0.85, 119.94 0.97 C133.34 2.79, 147.7 6.34, 158.71 11.55 C169.71 16.75, 179.19 24.77, 185.97 32.21 C192.75 39.65, 197.62 47.32, 199.36 56.2 C201.11 65.08, 200.7 76.99, 196.45 85.49 C192.2 94, 183.1 100.77, 173.85 107.24 C164.6 113.71, 153.26 120.73, 140.95 124.3 C128.63 127.87, 113.65 128.94, 99.96 128.64 C86.27 128.35, 71.19 126.24, 58.78 122.53 C46.38 118.83, 34.31 112.76, 25.52 106.41 C16.74 100.07, 10.01 92.55, 6.06 84.45 C2.11 76.34, 0.5 66.43, 1.82 57.78 C3.14 49.13, 7.27 40.04, 13.98 32.55 C20.68 25.06, 31.03 17.82, 42.05 12.82 C53.07 7.82, 73.59 4.21, 80.11 2.55 C86.64 0.89, 80.76 2.13, 81.19 2.85" stroke="#000000" stroke-width="1" fill="none"></path></g><g transform="translate(151.29947916666657 1254.5877278645837) rotate(0 68.5 12.5)"><text x="0" y="18" font-family="Virgil, Segoe UI Emoji" font-size="20px" fill="#000000" text-anchor="start" style="white-space: pre;" direction="ltr">Change Modes</text></g><g transform="translate(52.02864583333337 1177.9861653645837) rotate(0 186.49999999999997 12.5)"><text x="0" y="18" font-family="Virgil, Segoe UI Emoji" font-size="20px" fill="#000000" text-anchor="start" style="white-space: pre;" direction="ltr">Button 1 + 2 or Button 1 Long Press</text></g><g stroke-linecap="round" transform="translate(124.49218749999977 1382.1985677083333) rotate(0 100.11067708333329 64.140625)"><path d="M55.11 6.03 C65.92 1.36, 81.1 0.71, 94.47 0.46 C107.84 0.21, 122.49 1.56, 135.32 4.53 C148.15 7.5, 161.76 12.23, 171.44 18.3 C181.13 24.37, 188.52 32.82, 193.42 40.95 C198.32 49.08, 201.72 58.38, 200.85 67.09 C199.98 75.8, 194.65 85.35, 188.22 93.22 C181.79 101.09, 172.83 108.77, 162.27 114.3 C151.72 119.83, 138.02 124.27, 124.89 126.39 C111.75 128.51, 96.78 128.52, 83.47 127.03 C70.15 125.53, 56.24 122.21, 45.01 117.43 C33.78 112.65, 23.45 105.66, 16.08 98.35 C8.71 91.04, 2.94 82.09, 0.79 73.56 C-1.36 65.03, -0.34 55.33, 3.16 47.17 C6.67 39.01, 12.43 31.4, 21.84 24.6 C31.25 17.81, 52.42 9.61, 59.61 6.4 C66.8 3.19, 64.5 4.38, 64.97 5.32 M141.82 6.89 C153.99 9.13, 167.03 14.8, 175.99 21.17 C184.95 27.54, 191.9 36.5, 195.58 45.1 C199.25 53.71, 199.68 64.15, 198.06 72.81 C196.43 81.46, 192.67 89.54, 185.85 97.03 C179.03 104.53, 168.09 112.81, 157.14 117.75 C146.2 122.7, 133.52 125.04, 120.19 126.69 C106.86 128.34, 90.41 129.66, 77.18 127.66 C63.95 125.67, 51.72 120.18, 40.82 114.71 C29.92 109.24, 18.36 102.55, 11.78 94.84 C5.2 87.13, 2.27 77.17, 1.34 68.45 C0.42 59.74, 2.12 50.67, 6.24 42.55 C10.35 34.43, 17.07 25.96, 26.05 19.74 C35.02 13.52, 47.46 8.69, 60.07 5.22 C72.67 1.75, 88.01 -1.18, 101.67 -1.1 C115.33 -1.03, 135.13 4.3, 142.03 5.68 C148.93 7.07, 143.58 6.35, 143.07 7.2" stroke="#000000" stroke-width="1" fill="none"></path></g><g transform="translate(133.82812499999977 1429.3704427083333) rotate(0 96.00000000000003 12.5)"><text x="0" y="18" font-family="Virgil, Segoe UI Emoji" font-size="20px" fill="#000000" text-anchor="start" style="white-space: pre;" direction="ltr">Start or Stop Ride</text></g><g transform="translate(192.01171874999977 1352.501953125) rotate(0 47.00000000000003 12.5)"><text x="0" y="18" font-family="Virgil, Segoe UI Emoji" font-size="20px" fill="#000000" text-anchor="start" style="white-space: pre;" direction="ltr">Button 2</text></g><g stroke-linecap="round" transform="translate(126.1028645833336 1553.3964843749998) rotate(0 100.11067708333334 64.140625)"><path d="M127.88 2.92 C140.94 4.34, 154.89 9.69, 165.36 15.3 C175.83 20.9, 184.95 28.66, 190.71 36.55 C196.46 44.44, 199.54 54.01, 199.91 62.62 C200.27 71.22, 197.94 80.18, 192.9 88.19 C187.86 96.19, 179.51 104.67, 169.67 110.66 C159.83 116.65, 146.83 121.38, 133.87 124.14 C120.92 126.9, 105.28 127.8, 91.92 127.24 C78.56 126.67, 65.5 124.8, 53.74 120.73 C41.97 116.66, 29.72 109.59, 21.35 102.82 C12.98 96.05, 6.65 88.54, 3.51 80.12 C0.38 71.7, 0.19 60.89, 2.54 52.31 C4.89 43.73, 10.28 35.64, 17.61 28.63 C24.94 21.61, 35.12 14.89, 46.51 10.23 C57.9 5.57, 71.71 1.84, 85.95 0.68 C100.18 -0.49, 123.86 2.63, 131.9 3.26 C139.94 3.89, 134.67 3.52, 134.18 4.44 M117.8 0.63 C130.56 1.28, 146.38 5.97, 157.68 10.83 C168.99 15.69, 178.42 22.11, 185.62 29.82 C192.83 37.53, 199.08 48.49, 200.91 57.07 C202.75 65.65, 200.65 73.32, 196.64 81.31 C192.63 89.3, 185.75 98.41, 176.85 105.01 C167.96 111.6, 155.68 117.17, 143.28 120.89 C130.88 124.62, 116.25 127.06, 102.46 127.36 C88.67 127.65, 73.15 125.91, 60.56 122.66 C47.98 119.41, 36.08 113.91, 26.94 107.84 C17.8 101.78, 10.29 94.26, 5.71 86.27 C1.14 78.28, -1.81 68.56, -0.51 59.92 C0.8 51.27, 6.89 42.4, 13.54 34.4 C20.2 26.39, 28.66 17.27, 39.41 11.88 C50.16 6.49, 64.88 4, 78.05 2.06 C91.22 0.13, 111.48 0.33, 118.43 0.28 C125.37 0.23, 119.74 0.41, 119.71 1.76" stroke="#000000" stroke-width="1" fill="none"></path></g><g transform="translate(192.7239583333336 1602.964192708333) rotate(0 29.5 12.5)"><text x="0" y="18" font-family="Virgil, Segoe UI Emoji" font-size="20px" fill="#000000" text-anchor="start" style="white-space: pre;" direction="ltr">Reset</text></g><g transform="translate(193.62239583333354 1523.6998697916663) rotate(0 105.5 12.5)"><text x="0" y="18" font-family="Virgil, Segoe UI Emoji" font-size="20px" fill="#000000" text-anchor="start" style="white-space: pre;" direction="ltr">Long Press Button 2</text></g><g transform="translate(637.6236979166665 913.7966308593755) rotate(0 85 18)"><text x="0" y="25" font-family="Virgil, Segoe UI Emoji" font-size="28px" fill="#000000" text-anchor="start" style="white-space: pre;" direction="ltr">Circuit Race</text></g><g stroke-linecap="round" transform="translate(509.9934895833333 1720.2627766927087) rotate(0 148.51888020833326 81.728515625)"><path d="M32 0 M32 0 C109.85 -0.98, 188.5 0.68, 265.04 0 M32 0 C112.02 -0.01, 193.23 -1.02, 265.04 0 M265.04 0 C284.44 1.39, 295.15 11.97, 297.04 32 M265.04 0 C287.2 1.47, 298.32 9.78, 297.04 32 M297.04 32 C297.7 58.19, 296.29 84.26, 297.04 131.46 M297.04 32 C296.27 67.37, 297.26 102.93, 297.04 131.46 M297.04 131.46 C295.26 151.83, 286.47 162.99, 265.04 163.46 M297.04 131.46 C297.05 154.4, 287.1 165.25, 265.04 163.46 M265.04 163.46 C200.43 162.69, 134.6 162.89, 32 163.46 M265.04 163.46 C204.85 162.3, 145.04 161.94, 32 163.46 M32 163.46 C12.3 165.43, -0.93 150.94, 0 131.46 M32 163.46 C11.45 162.52, -0.1 152.38, 0 131.46 M0 131.46 C-0.26 105.22, -1.55 79.95, 0 32 M0 131.46 C0.56 91.92, 0.31 54.41, 0 32 M0 32 C1.72 11.46, 9.85 -0.02, 32 0 M0 32 C-1.49 9.02, 10.59 -0.74, 32 0" stroke="#000000" stroke-width="1" fill="none"></path></g><g transform="translate(568.14453125 1754.9281412760422) rotate(0 100.5 75)"><text x="0" y="18" font-family="Virgil, Segoe UI Emoji" font-size="20px" fill="#000000" text-anchor="start" style="white-space: pre;" direction="ltr">Info 1</text><text x="0" y="43" font-family="Virgil, Segoe UI Emoji" font-size="20px" fill="#000000" text-anchor="start" style="white-space: pre;" direction="ltr">- Current Speed</text><text x="0" y="68" font-family="Virgil, Segoe UI Emoji" font-size="20px" fill="#000000" text-anchor="start" style="white-space: pre;" direction="ltr">- Average Speed</text><text x="0" y="93" font-family="Virgil, Segoe UI Emoji" font-size="20px" fill="#000000" text-anchor="start" style="white-space: pre;" direction="ltr">- Distance Traveled</text><text x="0" y="118" font-family="Virgil, Segoe UI Emoji" font-size="20px" fill="#000000" text-anchor="start" style="white-space: pre;" direction="ltr">- Elapsed Time</text><text x="0" y="143" font-family="Virgil, Segoe UI Emoji" font-size="20px" fill="#000000" text-anchor="start" style="white-space: pre;" direction="ltr"></text></g><g stroke-linecap="round" transform="translate(568.509114583333 1037.539876302084) rotate(0 100.11067708333331 64.14062499999994)"><path d="M144.96 5.97 C157.17 8.84, 169.31 16.55, 177.78 23.22 C186.26 29.9, 192.15 37.78, 195.82 46.02 C199.5 54.26, 201.59 63.84, 199.82 72.67 C198.05 81.49, 192.51 91.37, 185.21 98.95 C177.91 106.54, 167.51 113.49, 156.02 118.18 C144.53 122.86, 129.8 125.84, 116.27 127.07 C102.74 128.29, 87.85 127.69, 74.85 125.54 C61.85 123.39, 48.88 119.53, 38.24 114.17 C27.61 108.8, 17.31 101.02, 11.05 93.36 C4.8 85.69, 1.47 76.91, 0.71 68.16 C-0.05 59.4, 1.78 48.98, 6.5 40.84 C11.22 32.7, 19.42 25.54, 29.05 19.33 C38.68 13.12, 51.8 6.78, 64.29 3.58 C76.78 0.38, 89.96 -0.63, 103.98 0.11 C118 0.86, 140.38 6.25, 148.4 8.05 C156.42 9.84, 152.71 9.96, 152.07 10.86 M82.86 -0.17 C95.32 -2.63, 111.24 -0.83, 124.63 1.37 C138.02 3.57, 152.47 7.6, 163.2 13.04 C173.92 18.48, 182.66 26.35, 188.99 34.02 C195.32 41.69, 200.13 50.09, 201.17 59.06 C202.21 68.04, 200.25 79.79, 195.23 87.87 C190.22 95.95, 180.67 101.67, 171.08 107.54 C161.48 113.42, 150.15 119.72, 137.65 123.12 C125.15 126.53, 109.78 128.17, 96.05 127.96 C82.32 127.75, 67.31 125.7, 55.26 121.88 C43.2 118.06, 32.28 111.95, 23.72 105.04 C15.16 98.14, 7.5 88.6, 3.9 80.46 C0.29 72.33, 0.3 64.72, 2.08 56.23 C3.87 47.74, 7.53 37.3, 14.6 29.52 C21.68 21.74, 33.14 14.22, 44.51 9.54 C55.88 4.86, 76.09 2.58, 82.82 1.45 C89.54 0.33, 84.61 1.82, 84.86 2.78" stroke="#000000" stroke-width="1" fill="none"></path></g><g transform="translate(590.442708333333 1083.4291992187505) rotate(0 88 12.5)"><text x="0" y="18" font-family="Virgil, Segoe UI Emoji" font-size="20px" fill="#000000" text-anchor="start" style="white-space: pre;" direction="ltr">Cycle info screens</text></g><g transform="translate(636.028645833333 1007.8432617187505) rotate(0 42.5 12.5)"><text x="0" y="18" font-family="Virgil, Segoe UI Emoji" font-size="20px" fill="#000000" text-anchor="start" style="white-space: pre;" direction="ltr">Button 1</text></g><g stroke-linecap="round" transform="translate(561.013020833333 1205.773925781251) rotate(0 100.11067708333331 64.14062499999994)"><path d="M109.71 -0.45 C122.66 -0.58, 136.88 4.52, 148.54 9.04 C160.21 13.57, 171.43 19.71, 179.71 26.7 C187.99 33.69, 195.06 42.65, 198.23 50.97 C201.41 59.29, 201.58 68.24, 198.75 76.62 C195.91 84.99, 189.32 94.02, 181.21 101.23 C173.11 108.45, 161.79 115.49, 150.12 119.88 C138.44 124.28, 124.59 126.62, 111.15 127.61 C97.71 128.6, 82.38 128.36, 69.48 125.81 C56.59 123.26, 44 118.1, 33.78 112.3 C23.55 106.5, 13.72 98.82, 8.12 91.03 C2.51 83.23, 0.25 74.35, 0.14 65.51 C0.03 56.68, 2.05 46.17, 7.46 38.02 C12.88 29.86, 22.45 22.24, 32.61 16.57 C42.78 10.89, 54.49 6.48, 68.46 3.99 C82.43 1.5, 107.56 1.85, 116.42 1.6 C125.29 1.36, 122.01 1.59, 121.66 2.51 M87.17 1.54 C99.83 -0.37, 115.47 0.48, 128.51 3.03 C141.54 5.58, 155.17 10.98, 165.4 16.84 C175.62 22.7, 183.81 30.62, 189.86 38.18 C195.91 45.75, 201.51 53.67, 201.69 62.25 C201.86 70.82, 196.56 81.52, 190.92 89.64 C185.29 97.75, 177.6 105.17, 167.87 110.93 C158.14 116.7, 145.24 121.29, 132.55 124.25 C119.86 127.21, 105.23 129.3, 91.74 128.67 C78.25 128.03, 63.7 124.57, 51.61 120.44 C39.52 116.3, 27.14 110.95, 19.19 103.84 C11.24 96.73, 6.89 86.42, 3.93 77.77 C0.98 69.12, -0.68 60.4, 1.46 51.94 C3.6 43.48, 8.87 33.92, 16.79 27.01 C24.71 20.1, 37.04 15.02, 48.98 10.49 C60.91 5.97, 81.87 1.49, 88.38 -0.12 C94.89 -1.74, 88.09 -0.37, 88.02 0.79" stroke="#000000" stroke-width="1" fill="none"></path></g><g transform="translate(582.497395833333 1251.663248697918) rotate(0 68.5 12.5)"><text x="0" y="18" font-family="Virgil, Segoe UI Emoji" font-size="20px" fill="#000000" text-anchor="start" style="white-space: pre;" direction="ltr">Change Modes</text></g><g transform="translate(483.22656249999983 1175.0616861979174) rotate(0 186.5 12.5)"><text x="0" y="18" font-family="Virgil, Segoe UI Emoji" font-size="20px" fill="#000000" text-anchor="start" style="white-space: pre;" direction="ltr">Button 1 + 2 or Button 1 Long Press</text></g><g stroke-linecap="round" transform="translate(555.6901041666663 1379.2740885416672) rotate(0 100.11067708333331 64.140625)"><path d="M95.22 -0.84 C108.25 -2.06, 123.64 1.2, 136.32 4.54 C149 7.88, 161.84 13.18, 171.3 19.19 C180.76 25.2, 188.3 32.72, 193.06 40.62 C197.83 48.52, 200.41 57.86, 199.89 66.58 C199.36 75.29, 196.03 85.08, 189.9 92.89 C183.77 100.7, 173.61 107.9, 163.11 113.44 C152.6 118.98, 139.9 123.92, 126.87 126.13 C113.85 128.33, 98.4 128, 84.96 126.68 C71.52 125.35, 57.52 122.91, 46.23 118.19 C34.94 113.47, 24.79 105.66, 17.22 98.37 C9.65 91.08, 3.16 82.88, 0.81 74.44 C-1.55 66.01, -0.58 56.12, 3.09 47.76 C6.75 39.4, 14.12 31.08, 22.79 24.26 C31.47 17.45, 41.95 10.93, 55.14 6.86 C68.32 2.79, 92.79 0.76, 101.89 -0.16 C110.98 -1.08, 109.81 0.26, 109.71 1.34 M79.92 1.05 C92.25 -1.62, 109.03 -1.61, 122.46 0.52 C135.89 2.66, 149.85 8.82, 160.49 13.88 C171.13 18.94, 179.68 23.7, 186.3 30.89 C192.93 38.09, 198.75 48.23, 200.22 57.07 C201.69 65.91, 199.55 75.52, 195.14 83.92 C190.73 92.32, 182.75 101, 173.74 107.47 C164.73 113.95, 153.41 119.46, 141.1 122.76 C128.8 126.05, 113.39 127.03, 99.89 127.24 C86.38 127.44, 72.63 127.43, 60.08 123.97 C47.53 120.52, 33.8 113.44, 24.58 106.52 C15.36 99.61, 8.81 90.61, 4.75 82.48 C0.68 74.35, -1.51 66.06, 0.18 57.73 C1.87 49.39, 8.1 40.06, 14.9 32.45 C21.69 24.85, 30.33 17.46, 40.97 12.09 C51.6 6.73, 72.19 1.94, 78.7 0.28 C85.21 -1.38, 79.31 0.99, 80.03 2.12" stroke="#000000" stroke-width="1" fill="none"></path></g><g transform="translate(565.0260416666663 1426.4459635416672) rotate(0 96 12.5)"><text x="0" y="18" font-family="Virgil, Segoe UI Emoji" font-size="20px" fill="#000000" text-anchor="start" style="white-space: pre;" direction="ltr">Start or Stop Ride</text></g><g transform="translate(623.2096354166663 1349.5774739583342) rotate(0 47 12.5)"><text x="0" y="18" font-family="Virgil, Segoe UI Emoji" font-size="20px" fill="#000000" text-anchor="start" style="white-space: pre;" direction="ltr">Button 2</text></g><g stroke-linecap="round" transform="translate(557.30078125 1550.4720052083342) rotate(0 100.11067708333331 64.140625)"><path d="M134.46 4.45 C147.35 6.16, 160.34 11.62, 170.02 17.5 C179.69 23.38, 187.59 31.55, 192.5 39.74 C197.41 47.93, 199.88 57.96, 199.47 66.65 C199.05 75.33, 195.9 83.99, 190.03 91.83 C184.16 99.67, 174.58 108.01, 164.25 113.69 C153.92 119.37, 141.16 123.53, 128.05 125.92 C114.94 128.31, 99.03 129.1, 85.59 128.03 C72.16 126.97, 58.96 124.24, 47.42 119.51 C35.89 114.78, 24.01 107.05, 16.38 99.67 C8.74 92.29, 3.86 83.58, 1.62 75.21 C-0.62 66.85, -0.38 57.76, 2.92 49.49 C6.21 41.21, 13.09 32.61, 21.37 25.57 C29.66 18.53, 40.76 11.48, 52.65 7.25 C64.53 3.02, 78.8 0.78, 92.68 0.17 C106.57 -0.44, 128.5 2.68, 135.95 3.58 C143.39 4.49, 137.82 4.58, 137.38 5.62 M107.45 1.44 C120.72 0.84, 137.9 3.14, 149.73 7.21 C161.55 11.27, 170.53 18.79, 178.4 25.81 C186.27 32.84, 193.64 41.07, 196.94 49.36 C200.24 57.66, 200.59 66.92, 198.2 75.58 C195.81 84.24, 190.31 94.06, 182.61 101.31 C174.91 108.57, 163.8 114.54, 151.99 119.13 C140.17 123.71, 124.95 127.88, 111.72 128.8 C98.49 129.73, 85.5 127.37, 72.62 124.69 C59.73 122, 45.14 118.3, 34.42 112.7 C23.71 107.11, 13.97 98.75, 8.33 91.1 C2.68 83.46, 0.55 75.57, 0.56 66.84 C0.57 58.12, 3.22 47.14, 8.38 38.74 C13.53 30.34, 21.88 22.32, 31.49 16.46 C41.1 10.59, 53.28 6.03, 66.01 3.54 C78.75 1.05, 100.95 1.79, 107.9 1.5 C114.84 1.21, 107.6 0.91, 107.67 1.81" stroke="#000000" stroke-width="1" fill="none"></path></g><g transform="translate(623.921875 1600.0397135416672) rotate(0 29.5 12.5)"><text x="0" y="18" font-family="Virgil, Segoe UI Emoji" font-size="20px" fill="#000000" text-anchor="start" style="white-space: pre;" direction="ltr">Reset</text></g><g transform="translate(624.8203125 1520.7753906250002) rotate(0 105.5 12.5)"><text x="0" y="18" font-family="Virgil, Segoe UI Emoji" font-size="20px" fill="#000000" text-anchor="start" style="white-space: pre;" direction="ltr">Long Press Button 2</text></g><g transform="translate(1115.9635416666667 914.7076822916667) rotate(0 86.5 18)"><text x="0" y="25" font-family="Virgil, Segoe UI Emoji" font-size="28px" fill="#000000" text-anchor="start" style="white-space: pre;" direction="ltr">Enduro Race</text></g><g stroke-linecap="round" transform="translate(988.3333333333335 1721.1738281250002) rotate(0 148.51888020833326 81.728515625)"><path d="M32 0 M32 0 C99.14 3.1, 167.33 2.91, 265.04 0 M32 0 C107.12 1.73, 180.82 0.74, 265.04 0 M265.04 0 C285.66 0.84, 297.61 11.41, 297.04 32 M265.04 0 C287.81 -1.64, 296.15 10.07, 297.04 32 M297.04 32 C295.7 55.28, 298.88 80.69, 297.04 131.46 M297.04 32 C297.64 55.81, 297.47 78.01, 297.04 131.46 M297.04 131.46 C298.87 152.24, 285.85 164.31, 265.04 163.46 M297.04 131.46 C297.23 154.11, 284.15 165.5, 265.04 163.46 M265.04 163.46 C177.61 162.84, 91.67 164.23, 32 163.46 M265.04 163.46 C182.73 162.56, 100.73 161.45, 32 163.46 M32 163.46 C8.71 162.61, 1.6 152.92, 0 131.46 M32 163.46 C10.41 164.86, 1.87 152.26, 0 131.46 M0 131.46 C1.29 110.19, -1.16 90.96, 0 32 M0 131.46 C0.2 107.23, 1.6 85.52, 0 32 M0 32 C1.65 9.01, 10.82 1.55, 32 0 M0 32 C1.89 10.06, 11.44 0.36, 32 0" stroke="#000000" stroke-width="1" fill="none"></path></g><g transform="translate(1046.4843750000002 1755.8391927083337) rotate(0 100.5 75)"><text x="0" y="18" font-family="Virgil, Segoe UI Emoji" font-size="20px" fill="#000000" text-anchor="start" style="white-space: pre;" direction="ltr">Info 1</text><text x="0" y="43" font-family="Virgil, Segoe UI Emoji" font-size="20px" fill="#000000" text-anchor="start" style="white-space: pre;" direction="ltr">- Current Speed</text><text x="0" y="68" font-family="Virgil, Segoe UI Emoji" font-size="20px" fill="#000000" text-anchor="start" style="white-space: pre;" direction="ltr">- Average Speed</text><text x="0" y="93" font-family="Virgil, Segoe UI Emoji" font-size="20px" fill="#000000" text-anchor="start" style="white-space: pre;" direction="ltr">- Distance Traveled</text><text x="0" y="118" font-family="Virgil, Segoe UI Emoji" font-size="20px" fill="#000000" text-anchor="start" style="white-space: pre;" direction="ltr">- Elapsed Time</text><text x="0" y="143" font-family="Virgil, Segoe UI Emoji" font-size="20px" fill="#000000" text-anchor="start" style="white-space: pre;" direction="ltr"></text></g><g stroke-linecap="round" transform="translate(1046.8489583333333 1038.4509277343752) rotate(0 100.11067708333326 64.14062499999994)"><path d="M141.05 6.16 C153.47 8.69, 166.7 14.32, 175.69 20.72 C184.68 27.12, 190.94 36.04, 195 44.54 C199.05 53.04, 201.37 62.93, 199.99 71.73 C198.61 80.53, 193.79 89.98, 186.71 97.36 C179.62 104.73, 168.64 111.17, 157.48 116 C146.31 120.83, 132.92 124.42, 119.74 126.35 C106.56 128.29, 91.72 129.41, 78.4 127.62 C65.08 125.83, 50.58 120.79, 39.83 115.63 C29.07 110.47, 20.53 104.11, 13.86 96.66 C7.18 89.2, 1.3 79.73, -0.2 70.9 C-1.7 62.07, 0.34 52.09, 4.84 43.69 C9.34 35.3, 17.69 26.8, 26.81 20.56 C35.94 14.31, 47.24 9.69, 59.57 6.22 C71.9 2.75, 86.31 -0.42, 100.78 -0.26 C115.24 -0.1, 138.2 5.7, 146.34 7.19 C154.47 8.68, 150.29 7.63, 149.6 8.69 M141.56 7.41 C153.85 10.15, 167.11 16.73, 175.99 22.91 C184.86 29.09, 191.05 36.15, 194.82 44.47 C198.59 52.8, 200.29 64.25, 198.6 72.85 C196.9 81.45, 191.77 88.88, 184.66 96.09 C177.54 103.3, 166.66 110.92, 155.92 116.11 C145.19 121.3, 133.36 125.32, 120.25 127.22 C107.14 129.13, 90.47 129.57, 77.26 127.52 C64.04 125.48, 51.97 120.36, 40.94 114.96 C29.92 109.55, 18.11 102.49, 11.12 95.09 C4.14 87.69, 0.02 79.37, -0.96 70.56 C-1.94 61.76, 0.42 50.8, 5.25 42.26 C10.08 33.72, 18.86 25.5, 28.01 19.32 C37.15 13.14, 47.9 8.63, 60.12 5.16 C72.34 1.7, 87.34 -1.75, 101.31 -1.47 C115.28 -1.19, 137.01 5.62, 143.95 6.86 C150.89 8.1, 143.88 4.95, 142.96 5.97" stroke="#000000" stroke-width="1" fill="none"></path></g><g transform="translate(1068.7825520833333 1084.340250651042) rotate(0 88 12.5)"><text x="0" y="18" font-family="Virgil, Segoe UI Emoji" font-size="20px" fill="#000000" text-anchor="start" style="white-space: pre;" direction="ltr">Cycle info screens</text></g><g transform="translate(1114.3684895833333 1008.7543131510417) rotate(0 42.5 12.5)"><text x="0" y="18" font-family="Virgil, Segoe UI Emoji" font-size="20px" fill="#000000" text-anchor="start" style="white-space: pre;" direction="ltr">Button 1</text></g><g stroke-linecap="round" transform="translate(1039.3528645833333 1206.6849772135427) rotate(0 100.11067708333326 64.14062499999994)"><path d="M67.72 2.63 C79.36 -0.91, 95.98 -0.29, 109.69 0.74 C123.41 1.77, 138.04 4.68, 150 8.8 C161.95 12.92, 173.49 18.55, 181.41 25.45 C189.34 32.36, 194.86 41.6, 197.54 50.21 C200.22 58.83, 200.04 68.72, 197.49 77.17 C194.95 85.61, 190.1 93.68, 182.28 100.89 C174.46 108.1, 162.28 116.04, 150.57 120.43 C138.87 124.82, 125.44 126.5, 112.07 127.24 C98.7 127.98, 83.43 127.35, 70.33 124.89 C57.23 122.43, 43.74 118.34, 33.46 112.5 C23.18 106.66, 14.08 97.9, 8.65 89.85 C3.23 81.8, 1 72.71, 0.92 64.2 C0.84 55.69, 2.86 46.61, 8.18 38.79 C13.5 30.97, 22.39 23.15, 32.82 17.27 C43.25 11.4, 63.55 5.7, 70.76 3.52 C77.96 1.34, 75.38 3.32, 76.06 4.2 M67.55 2.58 C78.8 -1.27, 93.51 -1.33, 107.04 -0.65 C120.57 0.02, 136.85 2.57, 148.75 6.62 C160.64 10.68, 170.39 16.37, 178.41 23.67 C186.43 30.97, 193.47 41.75, 196.84 50.43 C200.21 59.1, 200.86 67.17, 198.63 75.72 C196.4 84.27, 191.25 94.77, 183.47 101.74 C175.7 108.7, 163.74 113.4, 152 117.52 C140.26 121.63, 126.28 125.1, 113.03 126.41 C99.79 127.72, 85.68 127.45, 72.53 125.36 C59.38 123.27, 44.76 119.65, 34.12 113.87 C23.49 108.09, 14.38 98.81, 8.72 90.67 C3.05 82.53, 0.56 73.33, 0.14 65.04 C-0.29 56.75, 0.85 48.62, 6.17 40.92 C11.5 33.21, 22.18 25, 32.07 18.81 C41.97 12.62, 59.45 5.9, 65.54 3.78 C71.63 1.66, 67.91 5.03, 68.61 6.1" stroke="#000000" stroke-width="1" fill="none"></path></g><g transform="translate(1060.8372395833333 1252.5743001302096) rotate(0 68.5 12.5)"><text x="0" y="18" font-family="Virgil, Segoe UI Emoji" font-size="20px" fill="#000000" text-anchor="start" style="white-space: pre;" direction="ltr">Change Modes</text></g><g transform="translate(961.56640625 1175.9727376302092) rotate(0 186.5 12.5)"><text x="0" y="18" font-family="Virgil, Segoe UI Emoji" font-size="20px" fill="#000000" text-anchor="start" style="white-space: pre;" direction="ltr">Button 1 + 2 or Button 1 Long Press</text></g><g stroke-linecap="round" transform="translate(1034.0299479166665 1380.1851399739587) rotate(0 100.11067708333337 64.140625)"><path d="M54.65 7.42 C65.58 2.93, 81.4 1.34, 94.76 0.73 C108.12 0.12, 122.23 0.9, 134.82 3.76 C147.41 6.63, 160.53 11.59, 170.3 17.92 C180.06 24.25, 188.56 33.53, 193.42 41.73 C198.27 49.94, 199.92 58.44, 199.43 67.14 C198.93 75.84, 196.54 86.07, 190.44 93.95 C184.34 101.84, 173.55 109.11, 162.83 114.45 C152.12 119.78, 139.04 123.82, 126.13 125.96 C113.22 128.11, 98.86 128.48, 85.39 127.32 C71.92 126.16, 56.85 123.73, 45.31 119.02 C33.77 114.31, 23.4 106.48, 16.14 99.07 C8.88 91.66, 3.78 83.26, 1.74 74.56 C-0.31 65.86, 0.33 55.17, 3.86 46.87 C7.39 38.58, 12.26 31.93, 22.89 24.77 C33.52 17.61, 58.07 7.75, 67.64 3.93 C77.22 0.12, 79.77 0.91, 80.33 1.9 M124.56 2.87 C137.4 3.98, 150.95 7.67, 161.45 12.86 C171.94 18.06, 180.92 26.09, 187.55 34.03 C194.19 41.96, 200.24 51.54, 201.25 60.48 C202.26 69.42, 198.41 79.6, 193.63 87.66 C188.85 95.73, 182.29 102.84, 172.56 108.87 C162.82 114.89, 148.29 120.44, 135.23 123.83 C122.16 127.21, 107.54 129.7, 94.17 129.15 C80.79 128.61, 66.7 124.79, 54.96 120.57 C43.21 116.35, 32.44 110.38, 23.7 103.82 C14.97 97.26, 6.43 89.7, 2.55 81.23 C-1.34 72.77, -2.02 61.5, 0.42 53.02 C2.86 44.54, 9.54 37.63, 17.19 30.35 C24.83 23.07, 35.17 14.05, 46.3 9.32 C57.43 4.6, 70.56 3.29, 83.95 2.01 C97.34 0.74, 119.74 1.43, 126.65 1.69 C133.56 1.94, 125.83 2.7, 125.42 3.56" stroke="#000000" stroke-width="1" fill="none"></path></g><g transform="translate(1043.3658854166665 1427.3570149739587) rotate(0 96 12.5)"><text x="0" y="18" font-family="Virgil, Segoe UI Emoji" font-size="20px" fill="#000000" text-anchor="start" style="white-space: pre;" direction="ltr">Start or Stop Ride</text></g><g transform="translate(1101.5494791666665 1350.4885253906257) rotate(0 47 12.5)"><text x="0" y="18" font-family="Virgil, Segoe UI Emoji" font-size="20px" fill="#000000" text-anchor="start" style="white-space: pre;" direction="ltr">Button 2</text></g><g stroke-linecap="round" transform="translate(1035.6406250000002 1551.3830566406257) rotate(0 100.11067708333326 64.140625)"><path d="M121.71 0.71 C134.52 1.38, 147.95 6.81, 158.7 12.05 C169.46 17.3, 179.27 24.71, 186.24 32.18 C193.22 39.65, 199.06 48.06, 200.56 56.86 C202.05 65.66, 199.42 76.7, 195.22 84.97 C191.03 93.24, 184.35 100.24, 175.37 106.48 C166.39 112.73, 153.92 118.71, 141.34 122.42 C128.76 126.13, 113.61 128.82, 99.89 128.75 C86.18 128.68, 71.25 125.68, 59.02 122.01 C46.79 118.33, 35.59 112.99, 26.52 106.7 C17.45 100.42, 8.9 92.42, 4.59 84.29 C0.28 76.16, -0.68 66.47, 0.65 57.9 C1.97 49.33, 5.61 40.34, 12.53 32.87 C19.45 25.39, 30.95 18.31, 42.15 13.06 C53.35 7.82, 65.89 3.06, 79.73 1.39 C93.56 -0.28, 116.78 2.49, 125.17 3.06 C133.56 3.62, 130.51 4, 130.08 4.77 M70.73 1.13 C82.43 -1.74, 99.11 0.4, 112.78 1.77 C126.44 3.14, 140.91 4.8, 152.72 9.36 C164.53 13.93, 176.07 22.17, 183.66 29.15 C191.25 36.14, 195.96 43.13, 198.24 51.26 C200.53 59.39, 200.33 69.3, 197.35 77.93 C194.36 86.56, 188.76 95.77, 180.33 103.05 C171.9 110.32, 159.04 117.58, 146.77 121.58 C134.51 125.58, 120.1 126.69, 106.73 127.07 C93.37 127.44, 79.44 126.35, 66.57 123.83 C53.71 121.31, 39.25 117.61, 29.55 111.94 C19.84 106.26, 13.46 98.04, 8.34 89.78 C3.21 81.53, -1.65 71.12, -1.2 62.43 C-0.76 53.73, 5 45.4, 11.02 37.62 C17.03 29.85, 24.69 21.4, 34.88 15.77 C45.06 10.15, 66.11 6.02, 72.14 3.86 C78.16 1.7, 70.73 2.17, 71.02 2.81" stroke="#000000" stroke-width="1" fill="none"></path></g><g transform="translate(1102.2617187500002 1600.9507649739587) rotate(0 29.5 12.5)"><text x="0" y="18" font-family="Virgil, Segoe UI Emoji" font-size="20px" fill="#000000" text-anchor="start" style="white-space: pre;" direction="ltr">Reset</text></g><g transform="translate(1103.1601562500002 1521.6864420572917) rotate(0 105.5 12.5)"><text x="0" y="18" font-family="Virgil, Segoe UI Emoji" font-size="20px" fill="#000000" text-anchor="start" style="white-space: pre;" direction="ltr">Long Press Button 2</text></g></svg>